<?xml version="1.0" encoding="utf-8"?>
<!-- Generator: Adobe Illustrator 23.0.4, SVG Export Plug-In . SVG Version: 6.00 Build 0)  -->
<svg version="1.1" id="Layer_1" xmlns="http://www.w3.org/2000/svg" xmlns:xlink="http://www.w3.org/1999/xlink" x="0px" y="0px"
	 viewBox="0 0 800 800" style="enable-background:new 0 0 800 800;" xml:space="preserve">
<g>
	<path d="M133.33,315.49c0,1.45,0,2.85,0,4.2c0,1.35-0.1,2.75-0.28,4.2h80.06l11.16-11.81l14.23,25.79h-99.86
		c5.02,14.71,11.39,29.21,19.11,43.51c7.71,14.3,16.27,27.66,25.66,40.09c9.39,12.43,19.39,23.57,29.99,33.41
		c10.6,9.84,21.2,17.46,31.8,22.84l-25.1,30.45c-4.28,4.76-8.28,6.84-11.99,6.22c-3.72-0.62-7.44-2.8-11.16-6.53
		c-7.07-7.05-13.9-15.95-20.5-26.73c-6.6-10.77-12.79-22.79-18.55-36.05c-5.77-13.26-11.02-27.45-15.76-42.57
		c-4.74-15.12-8.69-30.56-11.83-46.3c-2.77,18.44-7.57,35.79-14.41,52.05c-6.83,16.27-15.63,31.13-26.39,44.59
		c-10.76,13.47-23.62,25.43-38.59,35.89C35.94,499.2,18.97,507.95,0,515c29.01-24.03,50.81-50.7,65.41-80.02
		c14.6-29.31,23.38-61.69,26.36-97.11H10.32l-6.69-13.98h88.98c0.18-2.69,0.32-5.33,0.42-7.92c0.09-2.59,0.14-5.33,0.14-8.24v-70.23
		l53.28,6.53l-13.11,10.57V315.49z"/>
	<path d="M379.92,346.57c-5.71,4.97-12.71,10.1-21.03,15.38c-8.31,5.28-17.21,10.36-26.69,15.23c-9.48,4.87-19.11,9.25-28.87,13.13
		c-9.76,3.88-18.83,6.74-27.2,8.57c5.76-3.53,12.23-8.35,19.39-14.47c7.16-6.12,14.37-12.86,21.62-20.23
		c7.25-7.36,14.27-15.04,21.06-23.03c6.79-7.98,12.6-15.61,17.43-22.87H291.2l-6.42-13.98h95.14v-25.48
		c-14.69,0.62-28.97,0.88-42.82,0.78c-13.86-0.1-25.71-0.67-35.56-1.71c14.88-2.07,29.52-4.61,43.93-7.61
		c14.41-3,28.08-6.26,41-9.79c12.92-3.52,24.87-7.35,35.84-11.5c10.97-4.14,20.55-8.39,28.73-12.74l25.94,20.51
		c2.04,2.07,2.69,4.3,1.95,6.68c-0.75,2.38-2.61,3.88-5.58,4.51c-6.32,1.66-14.13,3.16-23.43,4.51c-9.3,1.35-19.25,2.54-29.85,3.57
		v28.28h70.01l11.44-11.81l13.95,25.79h-88.7c6.51,4.97,13.76,9.69,21.76,14.14c7.99,4.46,16.22,8.44,24.69,11.96
		c8.46,3.53,17.06,6.53,25.8,9.01c8.74,2.49,17.11,4.25,25.1,5.28l-18.97,32.01c-2.42,3.94-4.84,6.22-7.25,6.84
		c-2.42,0.62-6.05,0-10.88-1.86c-4.46-1.86-9.62-5.07-15.48-9.63c-5.86-4.55-11.85-9.74-17.99-15.54
		c-6.14-5.8-12.13-11.96-17.99-18.49c-5.86-6.53-11.02-12.79-15.48-18.8v56.25h-40.17V346.57z M482.57,515H442.4v-13.05h-84.52
		v12.74h-40.17V386.57l50.77,6.84l-10.6,8.21l-0.28,1.83h85.91l6.97-10.88l40.17,18.65l-8.09,13.36V515z M357.88,445.39h84.52
		v-27.97h-84.52V445.39z M357.88,487.96h84.52v-28.59h-84.52V487.96z"/>
	<path d="M588.56,448.81v-80.8c-6.14,4.35-12.09,8.08-17.85,11.19c-5.77,3.11-10.79,5.39-15.06,6.84
		c4.46-4.97,9.02-11.03,13.67-18.18c4.65-7.15,9.16-14.92,13.53-23.31c4.37-8.39,8.37-17.14,11.99-26.26
		c3.63-9.11,6.74-18.23,9.34-27.35l34.87,10.57c3.35,1.04,5.25,2.49,5.72,4.35c0.46,1.86,0.14,3.73-0.98,5.59
		c-2.05,3.94-4.74,8.29-8.09,13.05h51.05c-3.53-6.63-7.35-12.48-11.44-17.56c-4.09-5.07-8.09-9.48-11.99-13.21
		c9.67-0.62,18.64-0.2,26.92,1.24c8.27,1.45,15.11,3.37,20.5,5.75c5.39,2.38,9.07,4.97,11.02,7.77c1.95,2.8,1.53,5.23-1.26,7.3
		l-12.55,8.7h57.18l11.72-12.12l13.67,26.1h-74.2v19.58h43.51l11.72-11.5l13.67,25.48h-68.9v19.27h43.51l11.72-11.81l13.67,25.79
		h-68.9v19.27h58.3l11.44-11.81L800,438.55H628.73v10.26H588.56z M616.18,292.18v-16.47h-49.09l-6.42-13.98h55.51v-24.24l51.05,6.53
		l-10.88,10.26v7.46h50.77v-24.24l51.32,6.53l-11.16,10.26v7.46h27.34l11.44-11.81L800,275.71h-52.72v16.47h-40.17v-16.47h-50.77
		v16.47H616.18z M564.3,487.65c7.62-3.52,15.52-8.34,23.71-14.45c8.18-6.11,15.34-13.21,21.48-21.29
		c2.23,13.26,2.83,24.29,1.81,33.1c-1.02,8.81-2.84,15.59-5.44,20.35c-2.61,4.76-5.58,7.66-8.93,8.7c-3.35,1.03-6.23,0.31-8.65-2.18
		L564.3,487.65z M628.73,358.06h47.42v-19.58h-47.42V358.06z M628.73,391.32h47.42v-19.27h-47.42V391.32z M628.73,424.57h47.42
		V405.3h-47.42V424.57z M641.56,514.69c0-4.97-0.19-10.36-0.56-16.16c-0.37-5.8-0.88-11.55-1.53-17.25
		c-0.65-5.7-1.58-11.08-2.79-16.16c-1.21-5.07-2.75-9.37-4.6-12.9c10.6,3.32,19.34,7.3,26.22,11.96
		c6.88,4.66,12.04,9.32,15.48,13.98c3.44,4.66,5.16,8.91,5.16,12.74c0,3.83-1.58,6.47-4.74,7.92L641.56,514.69z M700.42,514.69
		c0-4.97-0.14-10.36-0.42-16.16c-0.28-5.8-0.79-11.55-1.53-17.25c-0.75-5.7-1.72-11.08-2.93-16.16c-1.21-5.07-2.75-9.37-4.6-12.9
		c10.6,3.32,19.34,7.3,26.22,11.96c6.88,4.66,12.04,9.32,15.48,13.98c3.44,4.66,5.2,8.91,5.3,12.74c0.09,3.83-1.44,6.47-4.6,7.92
		L700.42,514.69z M759.27,514.69c0-4.97-0.19-10.36-0.56-16.16c-0.37-5.8-0.88-11.55-1.53-17.25c-0.65-5.7-1.58-11.08-2.79-16.16
		c-1.21-5.07-2.75-9.37-4.6-12.9c10.6,3.32,19.34,7.3,26.22,11.96c6.88,4.66,12.04,9.32,15.48,13.98c3.44,4.66,5.16,8.91,5.16,12.74
		c0,3.83-1.58,6.47-4.74,7.92L759.27,514.69z"/>
</g>
</svg>
