<?xml version="1.0" encoding="utf-8"?>
<!-- Generator: Adobe Illustrator 23.0.4, SVG Export Plug-In . SVG Version: 6.00 Build 0)  -->
<svg version="1.1" id="Layer_1" xmlns="http://www.w3.org/2000/svg" xmlns:xlink="http://www.w3.org/1999/xlink" x="0px" y="0px"
	 viewBox="0 0 800 800" style="enable-background:new 0 0 800 800;" xml:space="preserve">
<g>
	<path d="M152,300c0,1.17,0,2.29,0,3.38c0,1.09-0.09,2.21-0.25,3.38h71.75l10-9.5L246.25,318h-89.5c4.5,11.84,10.21,23.5,17.12,35
		c6.91,11.5,14.58,22.25,23,32.25c8.41,10,17.38,18.96,26.88,26.88c9.5,7.92,19,14.04,28.5,18.38l-22.5,24.5
		c-3.84,3.83-7.42,5.5-10.75,5c-3.34-0.5-6.67-2.25-10-5.25c-6.34-5.67-12.46-12.83-18.38-21.5c-5.92-8.66-11.46-18.33-16.62-29
		c-5.17-10.66-9.88-22.08-14.12-34.25c-4.25-12.16-7.79-24.58-10.61-37.25c-2.48,14.84-6.79,28.79-12.91,41.88
		c-6.12,13.09-14.01,25.04-23.65,35.88c-9.64,10.84-21.17,20.46-34.58,28.88c-13.42,8.41-28.62,15.46-45.62,21.12
		c26-19.33,45.54-40.79,58.62-64.38c13.08-23.58,20.96-49.62,23.62-78.12h-73l-6-11.25h79.75c0.16-2.16,0.29-4.29,0.38-6.38
		c0.08-2.08,0.12-4.29,0.12-6.62v-56.5l47.75,5.25L152,251V300z"/>
	<path d="M373,325c-5.11,4-11.39,8.12-18.84,12.38s-15.42,8.34-23.92,12.25c-8.5,3.92-17.12,7.44-25.88,10.57
		s-16.88,5.42-24.38,6.89c5.16-2.84,10.96-6.71,17.38-11.64c6.41-4.92,12.88-10.35,19.38-16.27c6.5-5.92,12.79-12.1,18.88-18.52
		c6.08-6.42,11.29-12.55,15.62-18.4h-57.75L287.73,291H373v-20.5c-13.17,0.5-25.96,0.71-38.38,0.62
		c-12.42-0.08-23.04-0.54-31.88-1.38c13.33-1.66,26.46-3.71,39.38-6.12c12.91-2.41,25.16-5.04,36.75-7.88
		c11.58-2.83,22.29-5.91,32.12-9.25c9.83-3.33,18.41-6.75,25.75-10.25l23.25,16.5c1.83,1.67,2.41,3.46,1.75,5.38
		c-0.67,1.92-2.34,3.12-5,3.62c-5.67,1.34-12.67,2.54-21,3.62c-8.34,1.09-17.25,2.04-26.75,2.88V291h62.75l10.25-9.5l12.5,20.75H415
		c5.83,4,12.33,7.79,19.5,11.38c7.16,3.59,14.54,6.79,22.12,9.62c7.58,2.84,15.29,5.25,23.12,7.25c7.83,2,15.33,3.42,22.5,4.25
		l-17,25.75c-2.17,3.17-4.34,5-6.5,5.5c-2.17,0.5-5.42,0-9.75-1.5c-4-1.5-8.62-4.08-13.88-7.75c-5.25-3.66-10.62-7.83-16.12-12.5
		c-5.5-4.66-10.88-9.62-16.12-14.88S413,319.08,409,314.25v45.25h-36V325z M465,460.5h-36V450h-75.75v10.25h-36V357.18l45.5,5.5
		l-9.5,6.6l-0.25,1.47h77l6.25-8.75l36,15L465,387.75V460.5z M353.25,404.5H429V382h-75.75V404.5z M353.25,438.75H429v-23h-75.75
		V438.75z"/>
	<path d="M560,407.25v-65c-5.5,3.5-10.84,6.5-16,9c-5.17,2.5-9.67,4.34-13.5,5.5c4-4,8.08-8.88,12.25-14.62
		c4.16-5.75,8.21-12,12.12-18.75c3.91-6.75,7.5-13.79,10.75-21.12c3.25-7.33,6.04-14.66,8.38-22l31.25,8.5c3,0.84,4.71,2,5.12,3.5
		c0.41,1.5,0.12,3-0.88,4.5c-1.84,3.17-4.25,6.67-7.25,10.5H648c-3.17-5.33-6.59-10.04-10.25-14.12
		c-3.67-4.08-7.25-7.62-10.75-10.62c8.66-0.5,16.71-0.16,24.12,1c7.41,1.17,13.54,2.71,18.38,4.62c4.83,1.92,8.12,4,9.88,6.25
		s1.38,4.21-1.12,5.88l-11.25,7h51.25l10.5-9.75l12.25,21h-66.5v15.75h39L724,325l12.25,20.5H674.5V361h39l10.5-9.5l12.25,20.75
		H674.5v15.5h52.25l10.25-9.5L749.5,399H596v8.25H560z M584.75,281.25V268h-44L535,256.75h49.75v-19.5l45.75,5.25l-9.75,8.25v6h45.5
		v-19.5l46,5.25l-10,8.25v6h24.5l10.25-9.5L749.5,268h-47.25v13.25h-36V268h-45.5v13.25H584.75z M538.25,438.5
		c6.83-2.83,13.91-6.71,21.25-11.62c7.33-4.91,13.75-10.62,19.25-17.12c2,10.67,2.54,19.54,1.62,26.62
		c-0.92,7.09-2.54,12.54-4.88,16.38c-2.34,3.83-5,6.16-8,7c-3,0.83-5.59,0.25-7.75-1.75L538.25,438.5z M596,334.25h42.5V318.5H596
		V334.25z M596,361h42.5v-15.5H596V361z M596,387.75h42.5v-15.5H596V387.75z M607.5,460.25c0-4-0.17-8.34-0.5-13
		c-0.34-4.66-0.79-9.29-1.38-13.88c-0.59-4.58-1.42-8.91-2.5-13c-1.09-4.08-2.46-7.54-4.12-10.38c9.5,2.67,17.33,5.88,23.5,9.62
		c6.16,3.75,10.79,7.5,13.88,11.25c3.08,3.75,4.62,7.17,4.62,10.25s-1.42,5.21-4.25,6.38L607.5,460.25z M660.25,460.25
		c0-4-0.12-8.34-0.38-13s-0.71-9.29-1.38-13.88c-0.67-4.58-1.54-8.91-2.62-13c-1.09-4.08-2.46-7.54-4.12-10.38
		c9.5,2.67,17.33,5.88,23.5,9.62c6.16,3.75,10.79,7.5,13.88,11.25c3.08,3.75,4.66,7.17,4.75,10.25c0.08,3.08-1.29,5.21-4.12,6.38
		L660.25,460.25z M713,460.25c0-4-0.17-8.34-0.5-13c-0.34-4.66-0.79-9.29-1.38-13.88c-0.59-4.58-1.42-8.91-2.5-13
		c-1.09-4.08-2.46-7.54-4.12-10.38c9.5,2.67,17.33,5.88,23.5,9.62c6.16,3.75,10.79,7.5,13.88,11.25c3.08,3.75,4.62,7.17,4.62,10.25
		s-1.42,5.21-4.25,6.38L713,460.25z"/>
</g>
</svg>
